grf
version=1
nRows=34
nColumns=19
inDegrees=yes
endheader
time	ground_force_2_vx	ground_force_2_vy	ground_force_2_vz	ground_force_2_px	ground_force_2_py	ground_force_2_pz	ground_moment_2_mx	ground_moment_2_my	ground_moment_2_mz	ground_force_3_vx	ground_force_3_vy	ground_force_3_vz	ground_force_3_px	ground_force_3_py	ground_force_3_pz	ground_moment_3_mx	ground_moment_3_my	ground_moment_3_mz
1.305000	0.000000	0.000000	0.000000	-0.279381	0.000000	0.226446	0.000000	0.000000	0.000000	0.000000	0.000000	0.000000	0.000000	0.000000	0.000000	0.000000	0.000000	0.000000
1.306000	0.000000	0.000000	0.000000	-2.759639	0.000000	2.461018	0.000000	0.000000	0.000000	0.000000	0.000000	0.000000	0.000000	0.000000	0.000000	0.000000	0.000000	0.000000
1.307000	0.000000	0.000000	0.000000	-0.185594	0.000000	0.141950	0.000000	0.000000	0.000000	0.000000	0.000000	0.000000	0.000000	0.000000	0.000000	0.000000	0.000000	0.000000
1.308000	0.000000	0.000000	0.000000	-0.210384	0.000000	0.164283	0.000000	0.000000	0.000000	0.000000	0.000000	0.000000	0.000000	0.000000	0.000000	0.000000	0.000000	0.000000
1.309000	0.000000	0.000000	0.000000	-0.218855	0.000000	0.171915	0.000000	0.000000	0.000000	0.000000	0.000000	0.000000	0.000000	0.000000	0.000000	0.000000	0.000000	0.000000
1.310000	0.000000	0.000000	0.000000	-0.223317	0.000000	0.175936	0.000000	0.000000	0.000000	0.000000	0.000000	0.000000	0.000000	0.000000	0.000000	0.000000	0.000000	0.000000
1.311000	0.000000	0.000000	0.000000	-0.226202	0.000000	0.178535	0.000000	0.000000	0.000000	0.000000	0.000000	0.000000	0.000000	0.000000	0.000000	0.000000	0.000000	0.000000
1.312000	0.000000	0.000000	0.000000	-0.228321	0.000000	0.180444	0.000000	0.000000	0.000000	0.000000	0.000000	0.000000	0.000000	0.000000	0.000000	0.000000	0.000000	0.000000
1.313000	0.000000	0.000000	0.000000	-0.230026	0.000000	0.181980	0.000000	0.000000	0.000000	0.000000	0.000000	0.000000	0.000000	0.000000	0.000000	0.000000	0.000000	0.000000
1.314000	0.000000	0.000000	0.000000	-0.231504	0.000000	0.183312	0.000000	0.000000	0.000000	0.000000	0.000000	0.000000	0.000000	0.000000	0.000000	0.000000	0.000000	0.000000
1.315000	0.000000	0.000000	0.000000	-0.232868	0.000000	0.184540	0.000000	0.000000	0.000000	0.000000	0.000000	0.000000	0.000000	0.000000	0.000000	0.000000	0.000000	0.000000
1.316000	0.000000	0.000000	0.000000	-0.234202	0.000000	0.185742	0.000000	0.000000	0.000000	0.000000	0.000000	0.000000	0.000000	0.000000	0.000000	0.000000	0.000000	0.000000
1.317000	0.000000	0.000000	0.000000	-0.235583	0.000000	0.186987	0.000000	0.000000	0.000000	0.000000	0.000000	0.000000	0.000000	0.000000	0.000000	0.000000	0.000000	0.000000
1.318000	0.000000	0.000000	0.000000	-0.237101	0.000000	0.188354	0.000000	0.000000	0.000000	0.000000	0.000000	0.000000	0.000000	0.000000	0.000000	0.000000	0.000000	0.000000
1.319000	0.000000	0.000000	0.000000	-0.238880	0.000000	0.189957	0.000000	0.000000	0.000000	0.000000	0.000000	0.000000	0.000000	0.000000	0.000000	0.000000	0.000000	0.000000
1.320000	0.000000	0.000000	0.000000	-0.241132	0.000000	0.191986	0.000000	0.000000	0.000000	0.000000	0.000000	0.000000	0.000000	0.000000	0.000000	0.000000	0.000000	0.000000
1.321000	0.000000	0.000000	0.000000	-0.244276	0.000000	0.194818	0.000000	0.000000	0.000000	0.000000	0.000000	0.000000	0.000000	0.000000	0.000000	0.000000	0.000000	0.000000
1.322000	0.000000	0.000000	0.000000	-0.249323	0.000000	0.199366	0.000000	0.000000	0.000000	0.000000	0.000000	0.000000	0.000000	0.000000	0.000000	0.000000	0.000000	0.000000
1.323000	0.000000	0.000000	0.000000	-0.259572	0.000000	0.208599	0.000000	0.000000	0.000000	0.000000	0.000000	0.000000	0.000000	0.000000	0.000000	0.000000	0.000000	0.000000
1.324000	0.000000	0.000000	0.000000	-0.295770	0.000000	0.241212	0.000000	0.000000	0.000000	0.000000	0.000000	0.000000	0.000000	0.000000	0.000000	0.000000	0.000000	0.000000
1.325000	0.000000	0.000000	0.000000	-0.040773	0.000000	0.011473	0.000000	0.000000	0.000000	0.000000	0.000000	0.000000	0.000000	0.000000	0.000000	0.000000	0.000000	0.000000
1.326000	0.000000	0.000000	0.000000	-0.195944	0.000000	0.151274	0.000000	0.000000	0.000000	0.000000	0.000000	0.000000	0.000000	0.000000	0.000000	0.000000	0.000000	0.000000
1.327000	0.000000	0.000000	0.000000	-0.213315	0.000000	0.166924	0.000000	0.000000	0.000000	0.000000	0.000000	0.000000	0.000000	0.000000	0.000000	0.000000	0.000000	0.000000
1.328000	0.000000	0.000000	0.000000	-0.220271	0.000000	0.173191	0.000000	0.000000	0.000000	0.000000	0.000000	0.000000	0.000000	0.000000	0.000000	0.000000	0.000000	0.000000
1.329000	0.000000	0.000000	0.000000	-0.224186	0.000000	0.176719	0.000000	0.000000	0.000000	0.000000	0.000000	0.000000	0.000000	0.000000	0.000000	0.000000	0.000000	0.000000
1.330000	0.000000	0.000000	0.000000	-0.226817	0.000000	0.179089	0.000000	0.000000	0.000000	0.000000	0.000000	0.000000	0.000000	0.000000	0.000000	0.000000	0.000000	0.000000
1.331000	0.000000	0.000000	0.000000	-0.228802	0.000000	0.180877	0.000000	0.000000	0.000000	0.000000	0.000000	0.000000	0.000000	0.000000	0.000000	0.000000	0.000000	0.000000
1.332000	0.000000	0.000000	0.000000	-0.230433	0.000000	0.182347	0.000000	0.000000	0.000000	0.000000	0.000000	0.000000	0.000000	0.000000	0.000000	0.000000	0.000000	0.000000
1.333000	0.000000	0.000000	0.000000	-0.231872	0.000000	0.183643	0.000000	0.000000	0.000000	0.000000	0.000000	0.000000	0.000000	0.000000	0.000000	0.000000	0.000000	0.000000
1.334000	0.000000	0.000000	0.000000	-0.233220	0.000000	0.184858	0.000000	0.000000	0.000000	0.000000	0.000000	0.000000	0.000000	0.000000	0.000000	0.000000	0.000000	0.000000
1.335000	0.000000	0.000000	0.000000	-0.234559	0.000000	0.186064	0.000000	0.000000	0.000000	0.000000	0.000000	0.000000	0.000000	0.000000	0.000000	0.000000	0.000000	0.000000
1.336000	0.000000	0.000000	0.000000	-0.235967	0.000000	0.187333	0.000000	0.000000	0.000000	0.000000	0.000000	0.000000	0.000000	0.000000	0.000000	0.000000	0.000000	0.000000
1.337000	0.000000	0.000000	0.000000	-0.237539	0.000000	0.188749	0.000000	0.000000	0.000000	0.000000	0.000000	0.000000	0.000000	0.000000	0.000000	0.000000	0.000000	0.000000
1.338000	0.000000	0.000000	0.000000	-0.239417	0.000000	0.190441	0.000000	0.000000	0.000000	0.000000	0.000000	0.000000	0.000000	0.000000	0.000000	0.000000	0.000000	0.000000
